<?xml version="1.0" encoding="utf-8"?>
<!-- Generator: Adobe Illustrator 21.0.0, SVG Export Plug-In . SVG Version: 6.00 Build 0)  -->
<svg version="1.1" id="Слой_1" xmlns="http://www.w3.org/2000/svg" xmlns:xlink="http://www.w3.org/1999/xlink" x="0px" y="0px"
	 viewBox="0 0 18 16" style="enable-background:new 0 0 18 16;" xml:space="preserve">
<style type="text/css">
	.st0{fill:#969696;}
</style>
<g id="bottom-stars">
	<path class="st0" d="M10.5,10.6l1.8-0.5c0.4-0.1,0.7-0.4,0.8-0.8l0.6-2.5c0-0.2,0.2-0.3,0.3-0.3c0,0,0,0,0,0c0.2,0,0.3,0.1,0.3,0.3
		l0.5,2.5c0.1,0.4,0.4,0.7,0.8,0.8l1.9,0.5c0.1,0,0.2,0.2,0.2,0.3c0,0.1-0.1,0.3-0.2,0.3l-1.7,0.4c-0.4,0.1-0.7,0.4-0.8,0.8L14.3,15
		c0,0.1-0.2,0.3-0.3,0.3c0,0,0,0,0,0c-0.2,0-0.3-0.1-0.3-0.3l-0.6-2.5c-0.1-0.4-0.4-0.7-0.8-0.8l-1.8-0.5c-0.1,0-0.2-0.2-0.2-0.3
		S10.4,10.6,10.5,10.6z"/>
	<path class="st0" d="M0.5,7.2l3-0.8c0.7-0.2,1.2-0.7,1.4-1.4l0.9-4c0-0.2,0.2-0.3,0.3-0.3h0c0.2,0,0.3,0.1,0.3,0.3l0.9,4
		c0.2,0.7,0.7,1.3,1.4,1.5l3,0.8c0.1,0,0.2,0.2,0.2,0.3c0,0.2-0.1,0.3-0.2,0.3L8.8,8.5C8.1,8.7,7.6,9.3,7.4,10l-1,4.1
		c0,0.1-0.2,0.3-0.3,0.3c0,0,0,0,0,0c-0.2,0-0.3-0.1-0.3-0.3l-0.9-4C4.7,9.4,4.1,8.8,3.4,8.7l-3-0.8c-0.1,0-0.2-0.2-0.2-0.3
		C0.2,7.4,0.3,7.2,0.5,7.2z"/>
</g>
</svg>
