<?xml version="1.0" encoding="utf-8"?>
<!-- Generator: Adobe Illustrator 21.0.0, SVG Export Plug-In . SVG Version: 6.00 Build 0)  -->
<svg version="1.1" id="Слой_1" xmlns="http://www.w3.org/2000/svg" xmlns:xlink="http://www.w3.org/1999/xlink" x="0px" y="0px"
	 viewBox="0 0 18 16" style="enable-background:new 0 0 18 16;" xml:space="preserve">
<style type="text/css">
	.st0{fill:#969696;}
</style>
<g id="bottom-stars">
	<path class="st0" d="M7.5,10.6l-1.8-0.5C5.3,10,5,9.7,4.9,9.3L4.3,6.8c0-0.2-0.2-0.3-0.3-0.3c0,0,0,0,0,0c-0.2,0-0.3,0.1-0.3,0.3
		L3.1,9.3C3,9.7,2.7,10,2.3,10.1l-1.9,0.5c-0.1,0-0.2,0.2-0.2,0.3c0,0.1,0.1,0.3,0.2,0.3l1.7,0.4c0.4,0.1,0.7,0.4,0.8,0.8L3.7,15
		c0,0.1,0.2,0.3,0.3,0.3c0,0,0,0,0,0c0.2,0,0.3-0.1,0.3-0.3l0.6-2.5c0.1-0.4,0.4-0.7,0.8-0.8l1.8-0.5c0.1,0,0.2-0.2,0.2-0.3
		S7.6,10.6,7.5,10.6z"/>
	<path class="st0" d="M17.5,7.2l-3-0.8c-0.7-0.2-1.2-0.7-1.4-1.4l-0.9-4c0-0.2-0.2-0.3-0.3-0.3h0c-0.2,0-0.3,0.1-0.3,0.3l-0.9,4
		c-0.2,0.7-0.7,1.3-1.4,1.5l-3,0.8c-0.1,0-0.2,0.2-0.2,0.3c0,0.2,0.1,0.3,0.2,0.3l2.8,0.7c0.7,0.2,1.2,0.7,1.4,1.4l1,4.1
		c0,0.1,0.2,0.3,0.3,0.3c0,0,0,0,0,0c0.2,0,0.3-0.1,0.3-0.3l0.9-4c0.2-0.7,0.7-1.3,1.4-1.4l3-0.8c0.1,0,0.2-0.2,0.2-0.3
		C17.8,7.4,17.7,7.2,17.5,7.2z"/>
</g>
</svg>
